<svg width="355" height="51" viewBox="0 0 355 51" fill="none" xmlns="http://www.w3.org/2000/svg">
<rect x="0.5" y="0.5" width="354" height="50" rx="3.5" stroke="black" stroke-opacity="0.5"/>
<g clip-path="url(#clip0_25_25)">
<path d="M31.7148 17.625C31.7764 17.667 31.7764 17.667 31.8392 17.7099C32.2983 18.0304 32.7397 18.3804 33.1328 18.7734C32.9673 18.9623 32.7959 19.1418 32.613 19.3153C32.5882 19.3389 32.5635 19.3626 32.5379 19.3869C32.4571 19.464 32.3762 19.541 32.2952 19.6179C32.2388 19.6718 32.1823 19.7256 32.1258 19.7795C31.978 19.9204 31.83 20.0613 31.6821 20.2021C31.5308 20.3461 31.3796 20.4902 31.2284 20.6343C30.9323 20.9165 30.6361 21.1985 30.3398 21.4805C30.2105 21.4216 30.126 21.3655 30.0283 21.265C29.8728 21.1124 29.7063 20.9891 29.5234 20.8678C29.4915 20.8466 29.4596 20.8254 29.4268 20.8036C28.1221 19.9513 26.5191 19.6033 24.9552 19.8641C23.7937 20.0782 22.7989 20.5695 21.9179 21.3164C21.8643 21.3575 21.8106 21.3986 21.7568 21.4395C20.7831 22.2456 20.129 23.6752 20.0273 24.8848C20.0004 25.5323 19.988 26.1813 20.1562 26.8125C20.1629 26.8396 20.1696 26.8667 20.1765 26.8947C20.3525 27.6003 20.689 28.2829 21.1445 28.8633C21.1693 28.896 21.194 28.9286 21.2195 28.9623C22.1799 30.1727 23.6295 30.9522 25.2011 31.1595C26.7722 31.3442 28.334 30.9394 29.606 30.0467C29.7251 29.9562 29.8393 29.8621 29.9531 29.7656C29.9779 29.7451 30.0026 29.7246 30.0281 29.7035C30.76 29.0949 31.3193 28.3553 31.6289 27.4688C30.4094 27.4552 29.19 27.4417 27.9336 27.4277C27.9477 26.169 27.9619 24.9102 27.9765 23.6133C30.5714 23.6133 33.1663 23.6133 35.8398 23.6133C36.0175 24.5746 36.0175 24.5746 36.0204 25.0325C36.0207 25.0649 36.021 25.0974 36.0213 25.1308C36.0389 27.5658 35.3216 29.823 33.6484 31.6934C33.6196 31.726 33.5907 31.7586 33.561 31.7922C32.7084 32.7277 31.6566 33.4582 30.5117 34.0313C30.483 34.0457 30.4544 34.0602 30.4249 34.0751C28.1215 35.2237 25.3368 35.3199 22.8841 34.5963C22.5835 34.5048 22.2917 34.4012 22.0039 34.2774C21.9697 34.2628 21.9356 34.2483 21.9004 34.2333C21.1972 33.9315 20.554 33.5768 19.9414 33.1289C19.9063 33.1034 19.8713 33.0778 19.8351 33.0515C19.5413 32.8324 19.266 32.5948 18.9961 32.3496C18.9595 32.3164 18.9595 32.3164 18.9221 32.2826C17.1666 30.6801 16.0392 28.3228 15.9769 25.9984C15.9742 25.8374 15.974 25.6764 15.9748 25.5154C15.9749 25.4814 15.975 25.4475 15.9751 25.4125C15.9772 24.8598 16.0072 24.3213 16.1172 23.7773C16.1245 23.7402 16.1319 23.7031 16.1395 23.6648C16.4926 21.9399 17.3239 20.3669 18.5654 19.0706C18.634 18.9979 18.6989 18.9245 18.7624 18.8478C18.8991 18.6972 19.052 18.5741 19.2109 18.4453C19.2559 18.4076 19.3008 18.3699 19.3457 18.332C20.3548 17.4864 21.5091 16.8557 22.7773 16.4356C22.8067 16.4255 22.836 16.4155 22.8663 16.4052C25.7358 15.431 29.2512 15.9154 31.7148 17.625Z" fill="#EF422B"/>
<path d="M27.9766 23.6133C30.5714 23.6133 33.1663 23.6133 35.8398 23.6133C36.0176 24.5746 36.0176 24.5746 36.0204 25.0325C36.0208 25.0649 36.0211 25.0973 36.0214 25.1308C36.039 27.5658 35.3216 29.823 33.6484 31.6934C33.6196 31.726 33.5907 31.7586 33.561 31.7922C32.7084 32.7277 31.6566 33.4582 30.5117 34.0312C30.4831 34.0457 30.4544 34.0602 30.4249 34.0751C28.1215 35.2237 25.3368 35.3199 22.8841 34.5963C22.5835 34.5048 22.2918 34.4012 22.0039 34.2773C21.9698 34.2628 21.9356 34.2483 21.9004 34.2333C21.1973 33.9315 20.554 33.5768 19.9414 33.1289C19.9063 33.1034 19.8713 33.0778 19.8352 33.0515C19.6274 32.8966 19.4282 32.7334 19.2324 32.5649C19.2102 32.5461 19.188 32.5272 19.1651 32.5078C19.0448 32.4027 18.9849 32.3282 18.9102 32.1855C20.2927 30.8659 20.2927 30.8659 21.7031 29.5195C22.0039 29.7656 22.0039 29.7656 22.117 29.8589C22.4054 30.091 22.7061 30.287 23.0352 30.4629C23.0611 30.4768 23.0871 30.4907 23.1139 30.505C23.8893 30.9132 24.7698 31.1588 25.6562 31.2012C25.7012 31.2033 25.7461 31.2055 25.7924 31.2077C27.3165 31.2442 28.8142 30.7316 29.9531 29.7656C29.9779 29.7451 30.0026 29.7246 30.0281 29.7035C30.7601 29.0949 31.3193 28.3553 31.6289 27.4688C30.4095 27.4552 29.19 27.4417 27.9336 27.4277C27.9478 26.169 27.962 24.9102 27.9766 23.6133Z" fill="#23A948"/>
<path d="M18.8672 18.7324C19.0474 18.7999 19.169 18.9264 19.3031 19.0546C19.3422 19.0914 19.3422 19.0914 19.382 19.129C19.4677 19.2101 19.5532 19.2915 19.6386 19.373C19.6981 19.4295 19.7576 19.486 19.8171 19.5425C19.9416 19.6609 20.066 19.7794 20.1903 19.8981C20.3497 20.0503 20.5098 20.202 20.67 20.3535C20.793 20.47 20.9155 20.5868 21.038 20.7038C21.0969 20.7599 21.1559 20.8158 21.215 20.8716C21.2975 20.9496 21.3795 21.0281 21.4613 21.1067C21.486 21.1297 21.5106 21.1528 21.536 21.1765C21.7031 21.3387 21.7031 21.3387 21.7031 21.5215C21.6073 21.6215 21.6073 21.6215 21.4883 21.7266C20.3206 22.9752 19.9618 24.4852 20.0274 26.1152C20.047 26.354 20.0945 26.5807 20.1563 26.8125C20.163 26.8396 20.1696 26.8667 20.1765 26.8947C20.4149 27.8503 20.9491 28.8037 21.7031 29.4785C21.6322 29.6531 21.4956 29.7696 21.359 29.8984C21.3325 29.9236 21.3061 29.9489 21.2789 29.9749C21.1917 30.058 21.1042 30.1409 21.0167 30.2238C20.9561 30.2815 20.8955 30.3392 20.8349 30.3969C20.6756 30.5487 20.5161 30.7002 20.3564 30.8517C20.1935 31.0063 20.0309 31.1612 19.8682 31.316C19.5491 31.6198 19.2297 31.9233 18.9102 32.2266C18.8622 32.1877 18.8143 32.1488 18.7665 32.1098C18.7398 32.0882 18.7131 32.0665 18.6856 32.0442C18.0758 31.5345 17.6369 30.838 17.2344 30.1758C17.2104 30.1365 17.2104 30.1365 17.1859 30.0964C16.6952 29.2836 16.3748 28.3785 16.1709 27.4636C16.1624 27.4255 16.1538 27.3875 16.145 27.3482C16.016 26.7386 15.9719 26.1359 15.9749 25.5154C15.975 25.4814 15.975 25.4475 15.9751 25.4125C15.9772 24.8598 16.0073 24.3213 16.1172 23.7773C16.1246 23.7402 16.132 23.7031 16.1396 23.6648C16.4928 21.9393 17.3244 20.3698 18.5641 19.0718C18.6687 18.9612 18.7686 18.8479 18.8672 18.7324Z" fill="#FEBE00"/>
<path d="M27.9766 23.6133C30.5714 23.6133 33.1663 23.6133 35.8398 23.6133C36.0176 24.5746 36.0176 24.5746 36.0204 25.0325C36.0208 25.0649 36.0211 25.0973 36.0214 25.1308C36.0402 27.7374 35.1986 30.2108 33.2617 32.1035C33.1908 32.1577 33.1199 32.2118 33.0469 32.2676C32.1252 31.3878 31.2035 30.508 30.2539 29.6016C30.3357 29.4454 30.4077 29.3635 30.5332 29.2401C31.0219 28.7395 31.4021 28.1183 31.6289 27.4688C30.4095 27.4552 29.19 27.4417 27.9336 27.4277C27.9478 26.169 27.962 24.9102 27.9766 23.6133Z" fill="#3283FB"/>
</g>
<path d="M117.92 23.7898H115.795C115.735 23.4413 115.623 23.1326 115.46 22.8636C115.297 22.5909 115.095 22.3598 114.852 22.1705C114.61 21.9811 114.333 21.839 114.023 21.7443C113.716 21.6458 113.384 21.5966 113.028 21.5966C112.396 21.5966 111.835 21.7557 111.347 22.0739C110.858 22.3883 110.475 22.8504 110.199 23.4602C109.922 24.0663 109.784 24.8068 109.784 25.6818C109.784 26.572 109.922 27.322 110.199 27.9318C110.479 28.5379 110.862 28.9962 111.347 29.3068C111.835 29.6136 112.394 29.767 113.023 29.767C113.371 29.767 113.697 29.7216 114 29.6307C114.307 29.536 114.581 29.3977 114.824 29.2159C115.07 29.0341 115.277 28.8106 115.443 28.5455C115.614 28.2803 115.731 27.9773 115.795 27.6364L117.92 27.6477C117.841 28.2008 117.669 28.7197 117.403 29.2045C117.142 29.6894 116.799 30.1174 116.375 30.4886C115.951 30.8561 115.455 31.1439 114.886 31.3523C114.318 31.5568 113.688 31.6591 112.994 31.6591C111.972 31.6591 111.059 31.4223 110.256 30.9489C109.453 30.4754 108.82 29.7917 108.358 28.8977C107.896 28.0038 107.665 26.9318 107.665 25.6818C107.665 24.428 107.898 23.3561 108.364 22.4659C108.83 21.572 109.464 20.8883 110.267 20.4148C111.07 19.9413 111.979 19.7045 112.994 19.7045C113.642 19.7045 114.244 19.7955 114.801 19.9773C115.358 20.1591 115.854 20.4261 116.29 20.7784C116.725 21.1269 117.083 21.5549 117.364 22.0625C117.648 22.5663 117.833 23.142 117.92 23.7898ZM123.567 31.6705C122.714 31.6705 121.976 31.483 121.351 31.108C120.726 30.733 120.241 30.2083 119.896 29.5341C119.555 28.8598 119.385 28.072 119.385 27.1705C119.385 26.2689 119.555 25.4792 119.896 24.8011C120.241 24.1231 120.726 23.5966 121.351 23.2216C121.976 22.8466 122.714 22.6591 123.567 22.6591C124.419 22.6591 125.158 22.8466 125.783 23.2216C126.408 23.5966 126.891 24.1231 127.232 24.8011C127.576 25.4792 127.749 26.2689 127.749 27.1705C127.749 28.072 127.576 28.8598 127.232 29.5341C126.891 30.2083 126.408 30.733 125.783 31.108C125.158 31.483 124.419 31.6705 123.567 31.6705ZM123.578 30.0227C124.04 30.0227 124.427 29.8958 124.737 29.642C125.048 29.3845 125.279 29.0398 125.43 28.608C125.586 28.1761 125.663 27.6951 125.663 27.1648C125.663 26.6307 125.586 26.1477 125.43 25.7159C125.279 25.2803 125.048 24.9337 124.737 24.6761C124.427 24.4186 124.04 24.2898 123.578 24.2898C123.105 24.2898 122.711 24.4186 122.396 24.6761C122.086 24.9337 121.853 25.2803 121.697 25.7159C121.546 26.1477 121.47 26.6307 121.47 27.1648C121.47 27.6951 121.546 28.1761 121.697 28.608C121.853 29.0398 122.086 29.3845 122.396 29.642C122.711 29.8958 123.105 30.0227 123.578 30.0227ZM131.551 26.3864V31.5H129.494V22.7727H131.46V24.2557H131.562C131.763 23.767 132.083 23.3788 132.523 23.0909C132.966 22.803 133.513 22.6591 134.165 22.6591C134.767 22.6591 135.292 22.7879 135.739 23.0455C136.189 23.303 136.538 23.6761 136.784 24.1648C137.034 24.6534 137.157 25.2462 137.153 25.9432V31.5H135.097V26.2614C135.097 25.678 134.945 25.2216 134.642 24.892C134.343 24.5625 133.928 24.3977 133.398 24.3977C133.038 24.3977 132.718 24.4773 132.438 24.6364C132.161 24.7917 131.943 25.017 131.784 25.3125C131.629 25.608 131.551 25.9659 131.551 26.3864ZM143.602 22.7727V24.3636H138.585V22.7727H143.602ZM139.824 20.6818H141.881V28.875C141.881 29.1515 141.922 29.3636 142.006 29.5114C142.093 29.6553 142.206 29.7538 142.347 29.8068C142.487 29.8598 142.642 29.8864 142.812 29.8864C142.941 29.8864 143.059 29.8769 143.165 29.858C143.275 29.839 143.358 29.822 143.415 29.8068L143.761 31.4148C143.652 31.4527 143.494 31.4943 143.29 31.5398C143.089 31.5852 142.843 31.6117 142.551 31.6193C142.036 31.6345 141.572 31.5568 141.159 31.3864C140.746 31.2121 140.419 30.9432 140.176 30.5795C139.938 30.2159 139.82 29.7614 139.824 29.2159V20.6818ZM145.322 31.5V22.7727H147.379V31.5H145.322ZM146.357 21.5341C146.031 21.5341 145.75 21.4261 145.516 21.2102C145.281 20.9905 145.163 20.7273 145.163 20.4205C145.163 20.1098 145.281 19.8466 145.516 19.6307C145.75 19.411 146.031 19.3011 146.357 19.3011C146.686 19.3011 146.966 19.411 147.197 19.6307C147.432 19.8466 147.55 20.1098 147.55 20.4205C147.55 20.7273 147.432 20.9905 147.197 21.2102C146.966 21.4261 146.686 21.5341 146.357 21.5341ZM151.551 26.3864V31.5H149.494V22.7727H151.46V24.2557H151.562C151.763 23.767 152.083 23.3788 152.523 23.0909C152.966 22.803 153.513 22.6591 154.165 22.6591C154.767 22.6591 155.292 22.7879 155.739 23.0455C156.189 23.303 156.538 23.6761 156.784 24.1648C157.034 24.6534 157.157 25.2462 157.153 25.9432V31.5H155.097V26.2614C155.097 25.678 154.945 25.2216 154.642 24.892C154.343 24.5625 153.928 24.3977 153.398 24.3977C153.038 24.3977 152.718 24.4773 152.438 24.6364C152.161 24.7917 151.943 25.017 151.784 25.3125C151.629 25.608 151.551 25.9659 151.551 26.3864ZM164.807 27.8295V22.7727H166.864V31.5H164.869V29.9489H164.778C164.581 30.4375 164.258 30.8371 163.807 31.1477C163.36 31.4583 162.809 31.6136 162.153 31.6136C161.581 31.6136 161.076 31.4867 160.636 31.233C160.201 30.9754 159.86 30.6023 159.614 30.1136C159.367 29.6212 159.244 29.0265 159.244 28.3295V22.7727H161.301V28.0114C161.301 28.5644 161.453 29.0038 161.756 29.3295C162.059 29.6553 162.456 29.8182 162.949 29.8182C163.252 29.8182 163.545 29.7443 163.83 29.5966C164.114 29.4489 164.347 29.2292 164.528 28.9375C164.714 28.642 164.807 28.2727 164.807 27.8295ZM172.842 31.6705C171.967 31.6705 171.212 31.4886 170.575 31.125C169.943 30.7576 169.456 30.2386 169.115 29.5682C168.774 28.8939 168.604 28.1004 168.604 27.1875C168.604 26.2898 168.774 25.5019 169.115 24.8239C169.46 24.142 169.941 23.6117 170.558 23.233C171.176 22.8504 171.901 22.6591 172.734 22.6591C173.272 22.6591 173.78 22.7462 174.257 22.9205C174.738 23.0909 175.162 23.3561 175.53 23.7159C175.901 24.0758 176.193 24.5341 176.405 25.0909C176.617 25.6439 176.723 26.303 176.723 27.0682V27.6989H169.57V26.3125H174.751C174.748 25.9186 174.662 25.5682 174.496 25.2614C174.329 24.9508 174.096 24.7064 173.797 24.5284C173.501 24.3504 173.157 24.2614 172.763 24.2614C172.342 24.2614 171.973 24.3636 171.655 24.5682C171.337 24.7689 171.089 25.0341 170.911 25.3636C170.736 25.6894 170.647 26.0473 170.643 26.4375V27.6477C170.643 28.1553 170.736 28.5909 170.922 28.9545C171.107 29.3144 171.367 29.5909 171.7 29.7841C172.034 29.9735 172.424 30.0682 172.871 30.0682C173.17 30.0682 173.441 30.0265 173.683 29.9432C173.926 29.8561 174.136 29.7292 174.314 29.5625C174.492 29.3958 174.626 29.1894 174.717 28.9432L176.638 29.1591C176.517 29.6667 176.286 30.1098 175.945 30.4886C175.607 30.8636 175.176 31.1553 174.649 31.3636C174.123 31.5682 173.52 31.6705 172.842 31.6705ZM184.233 31.5L181.767 22.7727H183.864L185.398 28.9091H185.477L187.045 22.7727H189.119L190.688 28.875H190.773L192.284 22.7727H194.386L191.915 31.5H189.773L188.136 25.6023H188.017L186.381 31.5H184.233ZM195.822 31.5V22.7727H197.879V31.5H195.822ZM196.857 21.5341C196.531 21.5341 196.25 21.4261 196.016 21.2102C195.781 20.9905 195.663 20.7273 195.663 20.4205C195.663 20.1098 195.781 19.8466 196.016 19.6307C196.25 19.411 196.531 19.3011 196.857 19.3011C197.186 19.3011 197.466 19.411 197.697 19.6307C197.932 19.8466 198.05 20.1098 198.05 20.4205C198.05 20.7273 197.932 20.9905 197.697 21.2102C197.466 21.4261 197.186 21.5341 196.857 21.5341ZM204.352 22.7727V24.3636H199.335V22.7727H204.352ZM200.574 20.6818H202.631V28.875C202.631 29.1515 202.672 29.3636 202.756 29.5114C202.843 29.6553 202.956 29.7538 203.097 29.8068C203.237 29.8598 203.392 29.8864 203.562 29.8864C203.691 29.8864 203.809 29.8769 203.915 29.858C204.025 29.839 204.108 29.822 204.165 29.8068L204.511 31.4148C204.402 31.4527 204.244 31.4943 204.04 31.5398C203.839 31.5852 203.593 31.6117 203.301 31.6193C202.786 31.6345 202.322 31.5568 201.909 31.3864C201.496 31.2121 201.169 30.9432 200.926 30.5795C200.688 30.2159 200.57 29.7614 200.574 29.2159V20.6818ZM208.317 26.3864V31.5H206.26V19.8636H208.271V24.2557H208.374C208.578 23.7633 208.894 23.375 209.322 23.0909C209.754 22.803 210.304 22.6591 210.97 22.6591C211.576 22.6591 212.105 22.786 212.555 23.0398C213.006 23.2936 213.355 23.6648 213.601 24.1534C213.851 24.642 213.976 25.2386 213.976 25.9432V31.5H211.919V26.2614C211.919 25.6742 211.768 25.2178 211.464 24.892C211.165 24.5625 210.745 24.3977 210.203 24.3977C209.839 24.3977 209.514 24.4773 209.226 24.6364C208.942 24.7917 208.718 25.017 208.555 25.3125C208.396 25.608 208.317 25.9659 208.317 26.3864ZM227.928 23.5795C227.833 23.2727 227.702 22.9981 227.536 22.7557C227.373 22.5095 227.176 22.2992 226.945 22.125C226.717 21.9508 226.456 21.8201 226.161 21.733C225.865 21.642 225.543 21.5966 225.195 21.5966C224.57 21.5966 224.013 21.7538 223.524 22.0682C223.036 22.3826 222.651 22.8447 222.371 23.4545C222.094 24.0606 221.956 24.7992 221.956 25.6705C221.956 26.5492 222.094 27.2936 222.371 27.9034C222.647 28.5133 223.032 28.9773 223.524 29.2955C224.017 29.6098 224.589 29.767 225.24 29.767C225.831 29.767 226.342 29.6534 226.774 29.4261C227.21 29.1989 227.545 28.8769 227.78 28.4602C228.015 28.0398 228.132 27.5473 228.132 26.983L228.609 27.0568H225.45V25.4091H230.172V26.8068C230.172 27.803 229.96 28.6648 229.536 29.392C229.111 30.1193 228.528 30.6799 227.786 31.0739C227.043 31.464 226.191 31.6591 225.229 31.6591C224.157 31.6591 223.215 31.4186 222.405 30.9375C221.598 30.4527 220.967 29.7652 220.513 28.875C220.062 27.9811 219.837 26.9205 219.837 25.6932C219.837 24.7538 219.969 23.9148 220.234 23.1761C220.503 22.4375 220.878 21.8106 221.359 21.2955C221.84 20.7765 222.405 20.3826 223.053 20.1136C223.7 19.8409 224.405 19.7045 225.166 19.7045C225.81 19.7045 226.411 19.7992 226.967 19.9886C227.524 20.1742 228.018 20.4394 228.45 20.7841C228.886 21.1288 229.244 21.5379 229.524 22.0114C229.804 22.4848 229.988 23.0076 230.075 23.5795H227.928ZM235.926 31.6705C235.074 31.6705 234.335 31.483 233.71 31.108C233.085 30.733 232.6 30.2083 232.256 29.5341C231.915 28.8598 231.744 28.072 231.744 27.1705C231.744 26.2689 231.915 25.4792 232.256 24.8011C232.6 24.1231 233.085 23.5966 233.71 23.2216C234.335 22.8466 235.074 22.6591 235.926 22.6591C236.778 22.6591 237.517 22.8466 238.142 23.2216C238.767 23.5966 239.25 24.1231 239.591 24.8011C239.936 25.4792 240.108 26.2689 240.108 27.1705C240.108 28.072 239.936 28.8598 239.591 29.5341C239.25 30.2083 238.767 30.733 238.142 31.108C237.517 31.483 236.778 31.6705 235.926 31.6705ZM235.938 30.0227C236.4 30.0227 236.786 29.8958 237.097 29.642C237.407 29.3845 237.638 29.0398 237.79 28.608C237.945 28.1761 238.023 27.6951 238.023 27.1648C238.023 26.6307 237.945 26.1477 237.79 25.7159C237.638 25.2803 237.407 24.9337 237.097 24.6761C236.786 24.4186 236.4 24.2898 235.938 24.2898C235.464 24.2898 235.07 24.4186 234.756 24.6761C234.445 24.9337 234.212 25.2803 234.057 25.7159C233.905 26.1477 233.83 26.6307 233.83 27.1648C233.83 27.6951 233.905 28.1761 234.057 28.608C234.212 29.0398 234.445 29.3845 234.756 29.642C235.07 29.8958 235.464 30.0227 235.938 30.0227ZM245.661 31.6705C244.808 31.6705 244.07 31.483 243.445 31.108C242.82 30.733 242.335 30.2083 241.99 29.5341C241.649 28.8598 241.479 28.072 241.479 27.1705C241.479 26.2689 241.649 25.4792 241.99 24.8011C242.335 24.1231 242.82 23.5966 243.445 23.2216C244.07 22.8466 244.808 22.6591 245.661 22.6591C246.513 22.6591 247.251 22.8466 247.876 23.2216C248.501 23.5966 248.984 24.1231 249.325 24.8011C249.67 25.4792 249.842 26.2689 249.842 27.1705C249.842 28.072 249.67 28.8598 249.325 29.5341C248.984 30.2083 248.501 30.733 247.876 31.108C247.251 31.483 246.513 31.6705 245.661 31.6705ZM245.672 30.0227C246.134 30.0227 246.52 29.8958 246.831 29.642C247.142 29.3845 247.373 29.0398 247.524 28.608C247.679 28.1761 247.757 27.6951 247.757 27.1648C247.757 26.6307 247.679 26.1477 247.524 25.7159C247.373 25.2803 247.142 24.9337 246.831 24.6761C246.52 24.4186 246.134 24.2898 245.672 24.2898C245.198 24.2898 244.804 24.4186 244.49 24.6761C244.179 24.9337 243.946 25.2803 243.791 25.7159C243.64 26.1477 243.564 26.6307 243.564 27.1648C243.564 27.6951 243.64 28.1761 243.791 28.608C243.946 29.0398 244.179 29.3845 244.49 29.642C244.804 29.8958 245.198 30.0227 245.672 30.0227ZM255.384 34.9545C254.645 34.9545 254.01 34.8542 253.48 34.6534C252.95 34.4564 252.524 34.1913 252.202 33.858C251.88 33.5246 251.656 33.1553 251.531 32.75L253.384 32.3011C253.467 32.4716 253.588 32.6402 253.747 32.8068C253.906 32.9773 254.12 33.1174 254.389 33.2273C254.662 33.3409 255.005 33.3977 255.418 33.3977C256.001 33.3977 256.484 33.2557 256.866 32.9716C257.249 32.6913 257.44 32.2292 257.44 31.5852V29.9318H257.338C257.232 30.1439 257.077 30.3617 256.872 30.5852C256.671 30.8087 256.404 30.9962 256.071 31.1477C255.741 31.2992 255.327 31.375 254.827 31.375C254.156 31.375 253.548 31.2178 253.003 30.9034C252.461 30.5852 252.029 30.1117 251.707 29.483C251.389 28.8504 251.23 28.0587 251.23 27.108C251.23 26.1496 251.389 25.3409 251.707 24.6818C252.029 24.0189 252.463 23.517 253.009 23.1761C253.554 22.8314 254.162 22.6591 254.832 22.6591C255.344 22.6591 255.764 22.7462 256.094 22.9205C256.427 23.0909 256.692 23.2973 256.889 23.5398C257.086 23.7784 257.236 24.0038 257.338 24.2159H257.452V22.7727H259.48V31.642C259.48 32.3883 259.302 33.0057 258.946 33.4943C258.59 33.983 258.103 34.3485 257.486 34.5909C256.868 34.8333 256.168 34.9545 255.384 34.9545ZM255.401 29.7614C255.836 29.7614 256.207 29.6553 256.514 29.4432C256.821 29.2311 257.054 28.9261 257.213 28.5284C257.372 28.1307 257.452 27.6534 257.452 27.0966C257.452 26.5473 257.372 26.0663 257.213 25.6534C257.058 25.2405 256.827 24.9205 256.52 24.6932C256.217 24.4621 255.844 24.3466 255.401 24.3466C254.942 24.3466 254.56 24.4659 254.253 24.7045C253.946 24.9432 253.715 25.2708 253.56 25.6875C253.404 26.1004 253.327 26.5701 253.327 27.0966C253.327 27.6307 253.404 28.0985 253.56 28.5C253.719 28.8977 253.952 29.2083 254.259 29.4318C254.569 29.6515 254.95 29.7614 255.401 29.7614ZM263.645 19.8636V31.5H261.588V19.8636H263.645ZM269.624 31.6705C268.749 31.6705 267.993 31.4886 267.357 31.125C266.724 30.7576 266.237 30.2386 265.896 29.5682C265.555 28.8939 265.385 28.1004 265.385 27.1875C265.385 26.2898 265.555 25.5019 265.896 24.8239C266.241 24.142 266.722 23.6117 267.339 23.233C267.957 22.8504 268.682 22.6591 269.516 22.6591C270.054 22.6591 270.561 22.7462 271.038 22.9205C271.519 23.0909 271.944 23.3561 272.311 23.7159C272.682 24.0758 272.974 24.5341 273.186 25.0909C273.398 25.6439 273.504 26.303 273.504 27.0682V27.6989H266.351V26.3125H271.533C271.529 25.9186 271.444 25.5682 271.277 25.2614C271.11 24.9508 270.877 24.7064 270.578 24.5284C270.283 24.3504 269.938 24.2614 269.544 24.2614C269.124 24.2614 268.754 24.3636 268.436 24.5682C268.118 24.7689 267.87 25.0341 267.692 25.3636C267.518 25.6894 267.429 26.0473 267.425 26.4375V27.6477C267.425 28.1553 267.518 28.5909 267.703 28.9545C267.889 29.3144 268.148 29.5909 268.482 29.7841C268.815 29.9735 269.205 30.0682 269.652 30.0682C269.951 30.0682 270.222 30.0265 270.464 29.9432C270.707 29.8561 270.917 29.7292 271.095 29.5625C271.273 29.3958 271.408 29.1894 271.499 28.9432L273.419 29.1591C273.298 29.6667 273.067 30.1098 272.726 30.4886C272.389 30.8636 271.957 31.1553 271.43 31.3636C270.904 31.5682 270.302 31.6705 269.624 31.6705Z" fill="black"/>
<defs>
<clipPath id="clip0_25_25">
<rect width="22" height="21" fill="white" transform="translate(15 15)"/>
</clipPath>
</defs>
</svg>
