<svg width="355" height="51" viewBox="0 0 355 51" fill="none" xmlns="http://www.w3.org/2000/svg">
<rect x="0.5" y="0.5" width="354" height="50" rx="3.5" stroke="black" stroke-opacity="0.5"/>
<path d="M35 34.5V32.5C35 31.4391 34.5786 30.4217 33.8284 29.6716C33.0783 28.9214 32.0609 28.5 31 28.5H23C21.9391 28.5 20.9217 28.9214 20.1716 29.6716C19.4214 30.4217 19 31.4391 19 32.5V34.5" stroke="black" stroke-width="2" stroke-linecap="round" stroke-linejoin="round"/>
<path d="M27 24.5C29.2091 24.5 31 22.7091 31 20.5C31 18.2909 29.2091 16.5 27 16.5C24.7909 16.5 23 18.2909 23 20.5C23 22.7091 24.7909 24.5 27 24.5Z" stroke="black" stroke-width="2" stroke-linecap="round" stroke-linejoin="round"/>
<path d="M126.913 19.8636H129.021V27.4659C129.021 28.2992 128.824 29.0322 128.43 29.6648C128.04 30.2973 127.49 30.7917 126.782 31.1477C126.074 31.5 125.246 31.6761 124.299 31.6761C123.348 31.6761 122.519 31.5 121.81 31.1477C121.102 30.7917 120.553 30.2973 120.163 29.6648C119.772 29.0322 119.577 28.2992 119.577 27.4659V19.8636H121.685V27.2898C121.685 27.7746 121.791 28.2064 122.004 28.5852C122.219 28.964 122.522 29.2614 122.913 29.4773C123.303 29.6894 123.765 29.7955 124.299 29.7955C124.833 29.7955 125.295 29.6894 125.685 29.4773C126.079 29.2614 126.382 28.964 126.594 28.5852C126.807 28.2064 126.913 27.7746 126.913 27.2898V19.8636ZM138.119 25.0795L136.244 25.2841C136.191 25.0947 136.098 24.9167 135.965 24.75C135.836 24.5833 135.662 24.4489 135.442 24.3466C135.223 24.2443 134.954 24.1932 134.636 24.1932C134.208 24.1932 133.848 24.286 133.556 24.4716C133.268 24.6572 133.126 24.8977 133.13 25.1932C133.126 25.447 133.219 25.6534 133.408 25.8125C133.602 25.9716 133.92 26.1023 134.363 26.2045L135.852 26.5227C136.677 26.7008 137.291 26.983 137.692 27.3693C138.098 27.7557 138.302 28.2614 138.306 28.8864C138.302 29.4356 138.141 29.9205 137.823 30.3409C137.509 30.7576 137.071 31.0833 136.511 31.3182C135.95 31.553 135.306 31.6705 134.579 31.6705C133.511 31.6705 132.651 31.447 131.999 31C131.348 30.5492 130.96 29.9223 130.835 29.1193L132.84 28.9261C132.931 29.3201 133.124 29.6174 133.42 29.8182C133.715 30.0189 134.1 30.1193 134.573 30.1193C135.062 30.1193 135.454 30.0189 135.749 29.8182C136.049 29.6174 136.198 29.3693 136.198 29.0739C136.198 28.8239 136.102 28.6174 135.908 28.4545C135.719 28.2917 135.424 28.1667 135.022 28.0795L133.533 27.767C132.696 27.5928 132.077 27.2992 131.675 26.8864C131.274 26.4697 131.075 25.9432 131.079 25.3068C131.075 24.7689 131.221 24.303 131.516 23.9091C131.816 23.5114 132.23 23.2045 132.761 22.9886C133.295 22.7689 133.91 22.6591 134.607 22.6591C135.63 22.6591 136.435 22.8769 137.022 23.3125C137.613 23.7481 137.978 24.3371 138.119 25.0795ZM143.866 31.6705C142.991 31.6705 142.235 31.4886 141.599 31.125C140.966 30.7576 140.479 30.2386 140.138 29.5682C139.798 28.8939 139.627 28.1004 139.627 27.1875C139.627 26.2898 139.798 25.5019 140.138 24.8239C140.483 24.142 140.964 23.6117 141.582 23.233C142.199 22.8504 142.924 22.6591 143.758 22.6591C144.296 22.6591 144.803 22.7462 145.281 22.9205C145.762 23.0909 146.186 23.3561 146.553 23.7159C146.924 24.0758 147.216 24.5341 147.428 25.0909C147.64 25.6439 147.746 26.303 147.746 27.0682V27.6989H140.593V26.3125H145.775C145.771 25.9186 145.686 25.5682 145.519 25.2614C145.353 24.9508 145.12 24.7064 144.82 24.5284C144.525 24.3504 144.18 24.2614 143.786 24.2614C143.366 24.2614 142.996 24.3636 142.678 24.5682C142.36 24.7689 142.112 25.0341 141.934 25.3636C141.76 25.6894 141.671 26.0473 141.667 26.4375V27.6477C141.667 28.1553 141.76 28.5909 141.945 28.9545C142.131 29.3144 142.39 29.5909 142.724 29.7841C143.057 29.9735 143.447 30.0682 143.894 30.0682C144.193 30.0682 144.464 30.0265 144.707 29.9432C144.949 29.8561 145.159 29.7292 145.337 29.5625C145.515 29.3958 145.65 29.1894 145.741 28.9432L147.661 29.1591C147.54 29.6667 147.309 30.1098 146.968 30.4886C146.631 30.8636 146.199 31.1553 145.673 31.3636C145.146 31.5682 144.544 31.6705 143.866 31.6705ZM153.455 34.7727V22.7727H155.478V24.2159H155.597C155.703 24.0038 155.853 23.7784 156.046 23.5398C156.239 23.2973 156.501 23.0909 156.83 22.9205C157.16 22.7462 157.58 22.6591 158.092 22.6591C158.766 22.6591 159.374 22.8314 159.915 23.1761C160.461 23.517 160.893 24.0227 161.211 24.6932C161.533 25.3598 161.694 26.178 161.694 27.1477C161.694 28.1061 161.537 28.9205 161.222 29.5909C160.908 30.2614 160.48 30.7727 159.938 31.125C159.397 31.4773 158.783 31.6534 158.097 31.6534C157.597 31.6534 157.183 31.5701 156.853 31.4034C156.523 31.2367 156.258 31.036 156.058 30.8011C155.861 30.5625 155.707 30.3371 155.597 30.125H155.512V34.7727H153.455ZM155.472 27.1364C155.472 27.7008 155.552 28.1951 155.711 28.6193C155.874 29.0436 156.107 29.375 156.41 29.6136C156.717 29.8485 157.088 29.9659 157.523 29.9659C157.978 29.9659 158.359 29.8447 158.665 29.6023C158.972 29.3561 159.203 29.0208 159.359 28.5966C159.518 28.1686 159.597 27.6818 159.597 27.1364C159.597 26.5947 159.52 26.1136 159.364 25.6932C159.209 25.2727 158.978 24.9432 158.671 24.7045C158.364 24.4659 157.982 24.3466 157.523 24.3466C157.084 24.3466 156.711 24.4621 156.404 24.6932C156.097 24.9242 155.864 25.2481 155.705 25.6648C155.55 26.0814 155.472 26.572 155.472 27.1364ZM165.512 26.3864V31.5H163.455V19.8636H165.467V24.2557H165.569C165.773 23.7633 166.09 23.375 166.518 23.0909C166.95 22.803 167.499 22.6591 168.165 22.6591C168.772 22.6591 169.3 22.786 169.751 23.0398C170.201 23.2936 170.55 23.6648 170.796 24.1534C171.046 24.642 171.171 25.2386 171.171 25.9432V31.5H169.114V26.2614C169.114 25.6742 168.963 25.2178 168.66 24.892C168.361 24.5625 167.94 24.3977 167.398 24.3977C167.035 24.3977 166.709 24.4773 166.421 24.6364C166.137 24.7917 165.914 25.017 165.751 25.3125C165.592 25.608 165.512 25.9659 165.512 26.3864ZM177.075 31.6705C176.222 31.6705 175.484 31.483 174.859 31.108C174.234 30.733 173.749 30.2083 173.404 29.5341C173.063 28.8598 172.893 28.072 172.893 27.1705C172.893 26.2689 173.063 25.4792 173.404 24.8011C173.749 24.1231 174.234 23.5966 174.859 23.2216C175.484 22.8466 176.222 22.6591 177.075 22.6591C177.927 22.6591 178.665 22.8466 179.29 23.2216C179.915 23.5966 180.398 24.1231 180.739 24.8011C181.084 25.4792 181.256 26.2689 181.256 27.1705C181.256 28.072 181.084 28.8598 180.739 29.5341C180.398 30.2083 179.915 30.733 179.29 31.108C178.665 31.483 177.927 31.6705 177.075 31.6705ZM177.086 30.0227C177.548 30.0227 177.934 29.8958 178.245 29.642C178.556 29.3845 178.787 29.0398 178.938 28.608C179.094 28.1761 179.171 27.6951 179.171 27.1648C179.171 26.6307 179.094 26.1477 178.938 25.7159C178.787 25.2803 178.556 24.9337 178.245 24.6761C177.934 24.4186 177.548 24.2898 177.086 24.2898C176.612 24.2898 176.219 24.4186 175.904 24.6761C175.594 24.9337 175.361 25.2803 175.205 25.7159C175.054 26.1477 174.978 26.6307 174.978 27.1648C174.978 27.6951 175.054 28.1761 175.205 28.608C175.361 29.0398 175.594 29.3845 175.904 29.642C176.219 29.8958 176.612 30.0227 177.086 30.0227ZM185.059 26.3864V31.5H183.002V22.7727H184.968V24.2557H185.07C185.271 23.767 185.591 23.3788 186.031 23.0909C186.474 22.803 187.021 22.6591 187.673 22.6591C188.275 22.6591 188.799 22.7879 189.246 23.0455C189.697 23.303 190.046 23.6761 190.292 24.1648C190.542 24.6534 190.665 25.2462 190.661 25.9432V31.5H188.604V26.2614C188.604 25.678 188.453 25.2216 188.15 24.892C187.851 24.5625 187.436 24.3977 186.906 24.3977C186.546 24.3977 186.226 24.4773 185.945 24.6364C185.669 24.7917 185.451 25.017 185.292 25.3125C185.137 25.608 185.059 25.9659 185.059 26.3864ZM196.616 31.6705C195.741 31.6705 194.985 31.4886 194.349 31.125C193.716 30.7576 193.229 30.2386 192.888 29.5682C192.548 28.8939 192.377 28.1004 192.377 27.1875C192.377 26.2898 192.548 25.5019 192.888 24.8239C193.233 24.142 193.714 23.6117 194.332 23.233C194.949 22.8504 195.674 22.6591 196.508 22.6591C197.046 22.6591 197.553 22.7462 198.031 22.9205C198.512 23.0909 198.936 23.3561 199.303 23.7159C199.674 24.0758 199.966 24.5341 200.178 25.0909C200.39 25.6439 200.496 26.303 200.496 27.0682V27.6989H193.343V26.3125H198.525C198.521 25.9186 198.436 25.5682 198.269 25.2614C198.103 24.9508 197.87 24.7064 197.57 24.5284C197.275 24.3504 196.93 24.2614 196.536 24.2614C196.116 24.2614 195.746 24.3636 195.428 24.5682C195.11 24.7689 194.862 25.0341 194.684 25.3636C194.51 25.6894 194.421 26.0473 194.417 26.4375V27.6477C194.417 28.1553 194.51 28.5909 194.695 28.9545C194.881 29.3144 195.14 29.5909 195.474 29.7841C195.807 29.9735 196.197 30.0682 196.644 30.0682C196.943 30.0682 197.214 30.0265 197.457 29.9432C197.699 29.8561 197.909 29.7292 198.087 29.5625C198.265 29.3958 198.4 29.1894 198.491 28.9432L200.411 29.1591C200.29 29.6667 200.059 30.1098 199.718 30.4886C199.381 30.8636 198.949 31.1553 198.423 31.3636C197.896 31.5682 197.294 31.6705 196.616 31.6705ZM210.012 31.6705C209.16 31.6705 208.421 31.483 207.796 31.108C207.171 30.733 206.686 30.2083 206.342 29.5341C206.001 28.8598 205.83 28.072 205.83 27.1705C205.83 26.2689 206.001 25.4792 206.342 24.8011C206.686 24.1231 207.171 23.5966 207.796 23.2216C208.421 22.8466 209.16 22.6591 210.012 22.6591C210.864 22.6591 211.603 22.8466 212.228 23.2216C212.853 23.5966 213.336 24.1231 213.677 24.8011C214.022 25.4792 214.194 26.2689 214.194 27.1705C214.194 28.072 214.022 28.8598 213.677 29.5341C213.336 30.2083 212.853 30.733 212.228 31.108C211.603 31.483 210.864 31.6705 210.012 31.6705ZM210.023 30.0227C210.486 30.0227 210.872 29.8958 211.183 29.642C211.493 29.3845 211.724 29.0398 211.876 28.608C212.031 28.1761 212.109 27.6951 212.109 27.1648C212.109 26.6307 212.031 26.1477 211.876 25.7159C211.724 25.2803 211.493 24.9337 211.183 24.6761C210.872 24.4186 210.486 24.2898 210.023 24.2898C209.55 24.2898 209.156 24.4186 208.842 24.6761C208.531 24.9337 208.298 25.2803 208.143 25.7159C207.991 26.1477 207.915 26.6307 207.915 27.1648C207.915 27.6951 207.991 28.1761 208.143 28.608C208.298 29.0398 208.531 29.3845 208.842 29.642C209.156 29.8958 209.55 30.0227 210.023 30.0227ZM215.94 31.5V22.7727H217.934V24.2273H218.025C218.184 23.7235 218.457 23.3352 218.843 23.0625C219.233 22.786 219.678 22.6477 220.178 22.6477C220.292 22.6477 220.419 22.6534 220.559 22.6648C220.703 22.6723 220.822 22.6856 220.917 22.7045V24.5966C220.83 24.5663 220.692 24.5398 220.502 24.517C220.317 24.4905 220.137 24.4773 219.962 24.4773C219.587 24.4773 219.25 24.5587 218.951 24.7216C218.656 24.8807 218.423 25.1023 218.252 25.3864C218.082 25.6705 217.996 25.9981 217.996 26.3693V31.5H215.94ZM230.116 31.6705C229.241 31.6705 228.485 31.4886 227.849 31.125C227.216 30.7576 226.729 30.2386 226.388 29.5682C226.048 28.8939 225.877 28.1004 225.877 27.1875C225.877 26.2898 226.048 25.5019 226.388 24.8239C226.733 24.142 227.214 23.6117 227.832 23.233C228.449 22.8504 229.174 22.6591 230.008 22.6591C230.546 22.6591 231.053 22.7462 231.531 22.9205C232.012 23.0909 232.436 23.3561 232.803 23.7159C233.174 24.0758 233.466 24.5341 233.678 25.0909C233.89 25.6439 233.996 26.303 233.996 27.0682V27.6989H226.843V26.3125H232.025C232.021 25.9186 231.936 25.5682 231.769 25.2614C231.603 24.9508 231.37 24.7064 231.07 24.5284C230.775 24.3504 230.43 24.2614 230.036 24.2614C229.616 24.2614 229.246 24.3636 228.928 24.5682C228.61 24.7689 228.362 25.0341 228.184 25.3636C228.01 25.6894 227.921 26.0473 227.917 26.4375V27.6477C227.917 28.1553 228.01 28.5909 228.195 28.9545C228.381 29.3144 228.64 29.5909 228.974 29.7841C229.307 29.9735 229.697 30.0682 230.144 30.0682C230.443 30.0682 230.714 30.0265 230.957 29.9432C231.199 29.8561 231.409 29.7292 231.587 29.5625C231.765 29.3958 231.9 29.1894 231.991 28.9432L233.911 29.1591C233.79 29.6667 233.559 30.1098 233.218 30.4886C232.881 30.8636 232.449 31.1553 231.923 31.3636C231.396 31.5682 230.794 31.6705 230.116 31.6705ZM235.737 31.5V22.7727H237.702V24.2557H237.805C237.987 23.7557 238.288 23.3655 238.708 23.0852C239.129 22.8011 239.63 22.6591 240.214 22.6591C240.805 22.6591 241.303 22.803 241.708 23.0909C242.117 23.375 242.405 23.7633 242.572 24.2557H242.663C242.856 23.7708 243.182 23.3845 243.64 23.0966C244.102 22.8049 244.649 22.6591 245.282 22.6591C246.085 22.6591 246.74 22.9129 247.248 23.4205C247.755 23.928 248.009 24.6686 248.009 25.642V31.5H245.947V25.9602C245.947 25.4186 245.803 25.0227 245.515 24.7727C245.227 24.5189 244.875 24.392 244.458 24.392C243.962 24.392 243.574 24.5473 243.293 24.858C243.017 25.1648 242.879 25.5644 242.879 26.0568V31.5H240.862V25.875C240.862 25.4242 240.725 25.0644 240.452 24.7955C240.183 24.5265 239.831 24.392 239.396 24.392C239.1 24.392 238.831 24.4678 238.589 24.6193C238.346 24.767 238.153 24.9773 238.009 25.25C237.865 25.5189 237.793 25.8333 237.793 26.1932V31.5H235.737ZM252.607 31.6761C252.054 31.6761 251.556 31.5777 251.113 31.3807C250.674 31.1799 250.325 30.8845 250.067 30.4943C249.814 30.1042 249.687 29.6231 249.687 29.0511C249.687 28.5587 249.778 28.1515 249.96 27.8295C250.141 27.5076 250.389 27.25 250.704 27.0568C251.018 26.8636 251.372 26.7178 251.766 26.6193C252.164 26.517 252.575 26.4432 252.999 26.3977C253.511 26.3447 253.925 26.2973 254.244 26.2557C254.562 26.2102 254.793 26.142 254.937 26.0511C255.085 25.9564 255.158 25.8106 255.158 25.6136V25.5795C255.158 25.1515 255.031 24.8201 254.778 24.5852C254.524 24.3504 254.158 24.233 253.681 24.233C253.177 24.233 252.778 24.3428 252.482 24.5625C252.191 24.7822 251.994 25.0417 251.891 25.3409L249.971 25.0682C250.122 24.5379 250.372 24.0947 250.721 23.7386C251.069 23.3788 251.496 23.1098 251.999 22.9318C252.503 22.75 253.06 22.6591 253.67 22.6591C254.09 22.6591 254.509 22.7083 254.925 22.8068C255.342 22.9053 255.723 23.0682 256.067 23.2955C256.412 23.5189 256.689 23.8239 256.897 24.2102C257.109 24.5966 257.215 25.0795 257.215 25.6591V31.5H255.238V30.3011H255.17C255.045 30.5436 254.869 30.7708 254.641 30.983C254.418 31.1913 254.136 31.3598 253.795 31.4886C253.458 31.6136 253.062 31.6761 252.607 31.6761ZM253.141 30.1648C253.554 30.1648 253.912 30.0833 254.215 29.9205C254.518 29.7538 254.751 29.5341 254.914 29.2614C255.081 28.9886 255.164 28.6913 255.164 28.3693V27.3409C255.1 27.3939 254.99 27.4432 254.835 27.4886C254.683 27.5341 254.513 27.5739 254.323 27.608C254.134 27.642 253.946 27.6723 253.761 27.6989C253.575 27.7254 253.414 27.7481 253.278 27.767C252.971 27.8087 252.696 27.8769 252.454 27.9716C252.211 28.0663 252.02 28.1989 251.88 28.3693C251.74 28.536 251.67 28.7519 251.67 29.017C251.67 29.3958 251.808 29.6818 252.085 29.875C252.361 30.0682 252.713 30.1648 253.141 30.1648ZM259.283 31.5V22.7727H261.34V31.5H259.283ZM260.317 21.5341C259.992 21.5341 259.711 21.4261 259.477 21.2102C259.242 20.9905 259.124 20.7273 259.124 20.4205C259.124 20.1098 259.242 19.8466 259.477 19.6307C259.711 19.411 259.992 19.3011 260.317 19.3011C260.647 19.3011 260.927 19.411 261.158 19.6307C261.393 19.8466 261.511 20.1098 261.511 20.4205C261.511 20.7273 261.393 20.9905 261.158 21.2102C260.927 21.4261 260.647 21.5341 260.317 21.5341ZM265.512 19.8636V31.5H263.455V19.8636H265.512Z" fill="black"/>
</svg>
