<svg width="112" height="113" viewBox="0 0 112 113" fill="none" xmlns="http://www.w3.org/2000/svg">
<path d="M33.9271 10.3993C17.822 11.9551 14.3884 12.7739 11.4454 15.6398C7.27601 19.8978 8.42054 26.2029 13.8162 29.0688C15.1242 29.7239 20.1928 30.7065 25.2614 31.1978L34.3359 32.1804V61.0036C34.3359 93.1022 34.7446 96.3775 39.4045 100.39C42.2658 102.683 47.7432 103.092 51.422 101.127C58.5344 97.442 58.6162 82.7029 51.8308 34.2275L51.2585 30.2971L64.3388 30.4609C77.3373 30.6246 77.4191 30.7065 76.4381 32.3442C75.8658 33.2449 75.0483 39.3043 74.5578 45.7732C73.4132 59.8572 73.9037 61.8225 78.4818 61.8225C80.9344 61.8225 81.5067 61.413 82.5694 59.1203L83.8775 56.4181L86.1665 58.8746C87.3928 60.1848 89.6818 61.9043 91.1534 62.7232C93.8512 64.1152 94.0147 64.1152 95.568 62.6413C98.2658 60.2667 97.7753 57.6464 93.9329 54.9442C92.1344 53.5522 90.1724 52.3239 89.6818 52.1601C89.1096 51.9145 89.7636 50.7681 91.3986 49.1304C94.2599 46.3464 94.7505 44.2174 92.7067 42.4978C91.5621 41.5152 90.7446 41.679 87.3928 43.6442C85.1855 44.8725 83.2235 45.8551 82.9782 45.8551C82.7329 45.8551 82.5694 43.8898 82.5694 41.5152C82.5694 36.1927 81.1797 31.1978 79.6264 30.5427C78.7271 30.2152 79.0541 29.7239 80.9344 28.5775C88.7008 23.8283 85.9213 12.5283 76.1928 9.82608C72.1052 8.6797 47.9067 9.00724 33.9271 10.3993ZM80.1986 34.8826C80.5256 36.1927 80.7709 39.9594 80.8526 43.1529C80.8526 46.4283 81.2614 49.1304 81.6702 49.1304C81.9972 49.1304 83.2235 48.4754 84.2862 47.5746C85.349 46.7558 87.3928 45.4456 88.8643 44.7087C92.8702 42.6616 93.1154 44.6268 89.1913 48.6391L85.8395 52.0783L90.0089 54.4529C95.1592 57.4007 96.3855 59.1203 94.914 60.9217C93.5242 62.5594 91.6439 61.6587 86.9023 57.0732C84.9402 55.2717 83.3052 53.8797 83.1417 54.1254C83.0599 54.2891 82.3242 55.8449 81.5067 57.4826C79.8716 61.1674 77.2556 61.6587 76.0293 58.5471C75.2935 56.7456 76.111 42.0884 77.3373 34.5551C77.8278 31.2797 79.4629 31.4435 80.1986 34.8826Z" fill="url(#paint0_linear_704_361)"/>
<path d="M65.5652 33.7362C64.2571 35.0464 64.3389 38.0761 65.8104 39.3044C67.3637 40.6145 69.4892 40.1232 70.7973 38.0761C72.9228 34.8826 68.263 31.0341 65.5652 33.7362ZM69.4892 35.9471C69.4892 36.8478 69.0805 37.8304 68.59 38.158C67.3637 38.8949 65.8922 37.1754 66.4644 35.7015C67.2002 33.8181 69.4892 34.0638 69.4892 35.9471Z" fill="url(#paint1_linear_704_361)"/>
<path d="M66.4642 43.5623C65.3197 45.0362 63.5212 58.3833 64.1752 60.5123C64.911 62.8869 68.4263 63.6239 70.1431 61.9043C71.2876 60.8398 71.5328 58.8746 71.5328 51.7507V42.9891L69.4073 42.7435C68.2628 42.5797 66.9547 42.9891 66.4642 43.5623ZM70.3066 51.4232C70.3066 59.2022 69.3256 61.9043 66.7912 60.9217C65.1562 60.3485 65.0745 58.9565 66.219 51.5869C67.2818 44.7906 67.527 44.2174 69.0803 44.2174C70.0613 44.2174 70.3066 45.5275 70.3066 51.4232Z" fill="url(#paint2_linear_704_361)"/>
<path d="M67.4454 67.1449C65.2381 68.0456 62.4586 71.1572 61.3958 73.9413C58.4527 81.5565 62.9491 88.5167 70.7972 88.6804C73.7403 88.6804 74.9666 88.271 76.9286 86.3058C80.3622 83.1123 81.752 80.1645 81.752 76.3159C81.752 69.6014 73.8221 64.4427 67.4454 67.1449ZM72.7593 72.8768C75.3754 74.2688 76.0294 75.0058 76.0294 76.8891C76.0294 79.5913 72.7593 83.5217 70.3885 83.5217C67.6089 83.5217 65.2381 80.2464 65.7286 77.0529C66.0556 74.7601 68.1812 71.2391 69.244 71.2391C69.4075 71.2391 71.0425 71.9761 72.7593 72.8768Z" fill="url(#paint3_linear_704_361)"/>
<path d="M90.7445 66.8993C88.8642 67.5543 85.0219 71.4029 83.7139 73.8594C83.0598 75.0877 82.5693 77.708 82.5693 79.7551C82.5693 87.3703 89.5182 91.2188 96.8759 87.6159C98.9197 86.6333 100.555 85.4869 100.555 85.0775C100.555 84.6681 100.555 84.0949 100.555 83.6855C100.555 83.358 98.1022 82.9485 95.0774 82.7029C89.5182 82.2935 89.5182 82.2935 89.273 79.6732C88.7825 74.5145 92.7066 70.2565 95.4044 72.9587C96.7124 74.2688 98.9197 73.2043 98.9197 71.2391C98.9197 67.8 94.6686 65.5072 90.7445 66.8993Z" fill="url(#paint4_linear_704_361)"/>
<defs>
<linearGradient id="paint0_linear_704_361" x1="53.0957" y1="102.384" x2="53.0957" y2="9.13108" gradientUnits="userSpaceOnUse">
<stop stop-color="#FF004F"/>
<stop offset="1" stop-color="#FF7A49"/>
</linearGradient>
<linearGradient id="paint1_linear_704_361" x1="67.9893" y1="40.0312" x2="67.9893" y2="32.8229" gradientUnits="userSpaceOnUse">
<stop stop-color="#FF004F"/>
<stop offset="1" stop-color="#FF7A49"/>
</linearGradient>
<linearGradient id="paint2_linear_704_361" x1="67.7844" y1="62.8457" x2="67.7844" y2="42.7071" gradientUnits="userSpaceOnUse">
<stop stop-color="#FF004F"/>
<stop offset="1" stop-color="#FF7A49"/>
</linearGradient>
<linearGradient id="paint3_linear_704_361" x1="71.12" y1="88.6804" x2="71.12" y2="66.4124" gradientUnits="userSpaceOnUse">
<stop stop-color="#FF004F"/>
<stop offset="1" stop-color="#FF7A49"/>
</linearGradient>
<linearGradient id="paint4_linear_704_361" x1="91.562" y1="88.9799" x2="91.562" y2="66.4858" gradientUnits="userSpaceOnUse">
<stop stop-color="#FF004F"/>
<stop offset="1" stop-color="#FF7A49"/>
</linearGradient>
</defs>
</svg>
