<svg width="112" height="113" viewBox="0 0 112 113" fill="none" xmlns="http://www.w3.org/2000/svg">
<path d="M33.927 10.3993C17.8219 11.9551 14.3883 12.7739 11.4452 15.6398C7.27589 19.8978 8.42041 26.2029 13.816 29.0688C15.1241 29.7239 20.1927 30.7065 25.2613 31.1978L34.3357 32.1804V61.0036C34.3357 93.1022 34.7445 96.3775 39.4044 100.39C42.2657 102.683 47.743 103.092 51.4219 101.127C58.5343 97.442 58.616 82.7029 51.8306 34.2275L51.2584 30.2971L64.3387 30.4609C77.3372 30.6246 77.419 30.7065 76.4379 32.3442C75.8657 33.2449 75.0481 39.3043 74.5576 45.7732C73.4131 59.8572 73.9036 61.8225 78.4817 61.8225C80.9343 61.8225 81.5065 61.413 82.5693 59.1203L83.8773 56.4181L86.1664 58.8746C87.3927 60.1848 89.6817 61.9043 91.1533 62.7232C93.8511 64.1152 94.0146 64.1152 95.5679 62.6413C98.2657 60.2667 97.7752 57.6464 93.9328 54.9442C92.1343 53.5522 90.1722 52.3239 89.6817 52.1601C89.1095 51.9145 89.7635 50.7681 91.3985 49.1304C94.2598 46.3464 94.7503 44.2174 92.7065 42.4978C91.562 41.5152 90.7445 41.679 87.3927 43.6442C85.1854 44.8725 83.2233 45.8551 82.9781 45.8551C82.7328 45.8551 82.5693 43.8898 82.5693 41.5152C82.5693 36.1927 81.1795 31.1978 79.6263 30.5427C78.727 30.2152 79.054 29.7239 80.9343 28.5775C88.7007 23.8283 85.9211 12.5283 76.1927 9.82608C72.1051 8.6797 47.9065 9.00724 33.927 10.3993ZM80.1985 34.8826C80.5255 36.1927 80.7708 39.9594 80.8525 43.1529C80.8525 46.4283 81.2613 49.1304 81.67 49.1304C81.9971 49.1304 83.2233 48.4754 84.2861 47.5746C85.3489 46.7558 87.3927 45.4456 88.8642 44.7087C92.87 42.6616 93.1153 44.6268 89.1912 48.6391L85.8394 52.0783L90.0087 54.4529C95.1591 57.4007 96.3854 59.1203 94.9138 60.9217C93.5241 62.5594 91.6438 61.6587 86.9022 57.0732C84.9401 55.2717 83.3051 53.8797 83.1416 54.1254C83.0598 54.2891 82.3241 55.8449 81.5065 57.4826C79.8715 61.1674 77.2554 61.6587 76.0292 58.5471C75.2934 56.7456 76.1109 42.0884 77.3372 34.5551C77.8277 31.2797 79.4627 31.4435 80.1985 34.8826Z" fill="url(#paint0_linear_235_458)"/>
<path d="M65.5649 33.7362C64.2569 35.0464 64.3386 38.0761 65.8102 39.3044C67.3635 40.6145 69.489 40.1232 70.797 38.0761C72.9226 34.8826 68.2627 31.0341 65.5649 33.7362ZM69.489 35.9471C69.489 36.8478 69.0802 37.8304 68.5897 38.158C67.3635 38.8949 65.8919 37.1754 66.4642 35.7015C67.2 33.8181 69.489 34.0638 69.489 35.9471Z" fill="url(#paint1_linear_235_458)"/>
<path d="M66.4642 43.5623C65.3197 45.0362 63.5212 58.3833 64.1752 60.5123C64.911 62.8869 68.4263 63.6239 70.1431 61.9043C71.2876 60.8398 71.5328 58.8746 71.5328 51.7507V42.9891L69.4073 42.7435C68.2628 42.5797 66.9547 42.9891 66.4642 43.5623ZM70.3066 51.4232C70.3066 59.2022 69.3256 61.9043 66.7912 60.9217C65.1562 60.3485 65.0745 58.9565 66.219 51.5869C67.2818 44.7906 67.527 44.2174 69.0803 44.2174C70.0613 44.2174 70.3066 45.5275 70.3066 51.4232Z" fill="url(#paint2_linear_235_458)"/>
<path d="M67.4452 67.1449C65.2379 68.0456 62.4583 71.1572 61.3955 73.9413C58.4525 81.5565 62.9488 88.5167 70.797 88.6804C73.7401 88.6804 74.9663 88.271 76.9284 86.3058C80.362 83.1123 81.7518 80.1645 81.7518 76.3159C81.7518 69.6014 73.8218 64.4427 67.4452 67.1449ZM72.759 72.8768C75.3751 74.2688 76.0291 75.0058 76.0291 76.8891C76.0291 79.5913 72.759 83.5217 70.3882 83.5217C67.6087 83.5217 65.2379 80.2464 65.7284 77.0529C66.0554 74.7601 68.1809 71.2391 69.2437 71.2391C69.4072 71.2391 71.0423 71.9761 72.759 72.8768Z" fill="url(#paint3_linear_235_458)"/>
<path d="M90.7445 66.8993C88.8642 67.5543 85.0219 71.4029 83.7139 73.8594C83.0598 75.0877 82.5693 77.708 82.5693 79.7551C82.5693 87.3703 89.5182 91.2188 96.8759 87.6159C98.9197 86.6333 100.555 85.4869 100.555 85.0775C100.555 84.6681 100.555 84.0949 100.555 83.6855C100.555 83.358 98.1022 82.9485 95.0774 82.7029C89.5182 82.2935 89.5182 82.2935 89.273 79.6732C88.7825 74.5145 92.7066 70.2565 95.4044 72.9587C96.7124 74.2688 98.9197 73.2043 98.9197 71.2391C98.9197 67.8 94.6686 65.5072 90.7445 66.8993Z" fill="url(#paint4_linear_235_458)"/>
<defs>
<linearGradient id="paint0_linear_235_458" x1="53.0956" y1="102.384" x2="53.0956" y2="9.13108" gradientUnits="userSpaceOnUse">
<stop stop-color="#FF004F"/>
<stop offset="1" stop-color="#FF7A49"/>
</linearGradient>
<linearGradient id="paint1_linear_235_458" x1="67.989" y1="40.0312" x2="67.989" y2="32.8229" gradientUnits="userSpaceOnUse">
<stop stop-color="#FF004F"/>
<stop offset="1" stop-color="#FF7A49"/>
</linearGradient>
<linearGradient id="paint2_linear_235_458" x1="67.7844" y1="62.8457" x2="67.7844" y2="42.7071" gradientUnits="userSpaceOnUse">
<stop stop-color="#FF004F"/>
<stop offset="1" stop-color="#FF7A49"/>
</linearGradient>
<linearGradient id="paint3_linear_235_458" x1="71.1198" y1="88.6804" x2="71.1198" y2="66.4124" gradientUnits="userSpaceOnUse">
<stop stop-color="#FF004F"/>
<stop offset="1" stop-color="#FF7A49"/>
</linearGradient>
<linearGradient id="paint4_linear_235_458" x1="91.562" y1="88.9799" x2="91.562" y2="66.4858" gradientUnits="userSpaceOnUse">
<stop stop-color="#FF004F"/>
<stop offset="1" stop-color="#FF7A49"/>
</linearGradient>
</defs>
</svg>
